<svg width="33" height="39" viewBox="0 0 33 39" fill="none" xmlns="http://www.w3.org/2000/svg">
<rect y="3" width="33" height="36" rx="2" fill="#A69485"/>
<rect x="3" y="13" width="27" height="23" fill="#F4F6F9"/>
<ellipse cx="5.5" cy="2" rx="1.5" ry="2" fill="#A69485"/>
<ellipse cx="27.5" cy="2" rx="1.5" ry="2" fill="#A69485"/>
<ellipse cx="22.5" cy="2" rx="1.5" ry="2" fill="#A69485"/>
<ellipse cx="18.5" cy="2" rx="1.5" ry="2" fill="#A69485"/>
<ellipse cx="14.5" cy="2" rx="1.5" ry="2" fill="#A69485"/>
<ellipse cx="10.5" cy="2" rx="1.5" ry="2" fill="#A69485"/>
<path d="M12.2822 26.4023H8.1123L7.17578 29H5.82227L9.62305 19.0469H10.7715L14.5791 29H13.2324L12.2822 26.4023ZM8.50879 25.3223H11.8926L10.1973 20.667L8.50879 25.3223ZM21.9824 25.3838C21.9824 26.514 21.7227 27.4232 21.2031 28.1113C20.6836 28.7949 19.9863 29.1367 19.1113 29.1367C18.1771 29.1367 17.4548 28.8063 16.9443 28.1455L16.8828 29H15.7207V18.5H16.9854V22.417C17.4958 21.7835 18.1999 21.4668 19.0977 21.4668C19.9954 21.4668 20.6995 21.8063 21.21 22.4854C21.7249 23.1644 21.9824 24.0941 21.9824 25.2744V25.3838ZM20.7178 25.2402C20.7178 24.3789 20.5514 23.7135 20.2188 23.2441C19.8861 22.7747 19.4076 22.54 18.7832 22.54C17.9492 22.54 17.3499 22.9274 16.9854 23.7021V26.9014C17.3727 27.6761 17.9766 28.0635 18.7969 28.0635C19.403 28.0635 19.8747 27.8288 20.2119 27.3594C20.5492 26.89 20.7178 26.1836 20.7178 25.2402ZM27.1572 22.7383C26.9658 22.7064 26.7585 22.6904 26.5352 22.6904C25.7057 22.6904 25.1429 23.0436 24.8467 23.75V29H23.582V21.6035H24.8125L24.833 22.458C25.2477 21.7972 25.8356 21.4668 26.5967 21.4668C26.8428 21.4668 27.0296 21.4987 27.1572 21.5625V22.7383Z" fill="#A69485"/>
</svg>

