<svg width="33" height="39" viewBox="0 0 33 39" fill="none" xmlns="http://www.w3.org/2000/svg">
<rect y="3" width="33" height="36" rx="2" fill="#A69485"/>
<rect x="3" y="13" width="27" height="23" fill="#F4F6F9"/>
<ellipse cx="5.5" cy="2" rx="1.5" ry="2" fill="#A69485"/>
<ellipse cx="27.5" cy="2" rx="1.5" ry="2" fill="#A69485"/>
<ellipse cx="22.5" cy="2" rx="1.5" ry="2" fill="#A69485"/>
<ellipse cx="18.5" cy="2" rx="1.5" ry="2" fill="#A69485"/>
<ellipse cx="14.5" cy="2" rx="1.5" ry="2" fill="#A69485"/>
<ellipse cx="10.5" cy="2" rx="1.5" ry="2" fill="#A69485"/>
<path d="M10.6621 26.4023H6.49219L5.55566 29H4.20215L8.00293 19.0469H9.15137L12.959 29H11.6123L10.6621 26.4023ZM6.88867 25.3223H10.2725L8.57715 20.667L6.88867 25.3223ZM13.7998 25.2402C13.7998 24.0872 14.0664 23.1712 14.5996 22.4922C15.1328 21.8086 15.8392 21.4668 16.7188 21.4668C17.6211 21.4668 18.3252 21.7858 18.8311 22.4238L18.8926 21.6035H20.0479V28.8223C20.0479 29.7793 19.763 30.5335 19.1934 31.085C18.6283 31.6364 17.8672 31.9121 16.9102 31.9121C16.377 31.9121 15.8551 31.7982 15.3447 31.5703C14.8343 31.3424 14.4447 31.0303 14.1758 30.6338L14.832 29.875C15.3743 30.5449 16.0374 30.8799 16.8213 30.8799C17.4365 30.8799 17.915 30.7067 18.2568 30.3604C18.6032 30.014 18.7764 29.5264 18.7764 28.8975V28.2617C18.2705 28.8451 17.5801 29.1367 16.7051 29.1367C15.8392 29.1367 15.1374 28.7881 14.5996 28.0908C14.0664 27.3936 13.7998 26.4434 13.7998 25.2402ZM15.0713 25.3838C15.0713 26.2178 15.2422 26.874 15.584 27.3525C15.9258 27.8265 16.4043 28.0635 17.0195 28.0635C17.8171 28.0635 18.4027 27.7012 18.7764 26.9766V23.5996C18.389 22.8932 17.8079 22.54 17.0332 22.54C16.418 22.54 15.9372 22.7793 15.5908 23.2578C15.2445 23.7363 15.0713 24.445 15.0713 25.3838ZM21.627 25.2334C21.627 24.5088 21.7682 23.8571 22.0508 23.2783C22.3379 22.6995 22.7344 22.2529 23.2402 21.9385C23.7507 21.624 24.3317 21.4668 24.9834 21.4668C25.9906 21.4668 26.804 21.8154 27.4238 22.5127C28.0482 23.21 28.3604 24.1374 28.3604 25.2949V25.3838C28.3604 26.1038 28.2214 26.751 27.9434 27.3252C27.6699 27.8949 27.2757 28.3392 26.7607 28.6582C26.2503 28.9772 25.6624 29.1367 24.9971 29.1367C23.9945 29.1367 23.181 28.7881 22.5566 28.0908C21.9368 27.3936 21.627 26.4707 21.627 25.3223V25.2334ZM22.8984 25.3838C22.8984 26.2041 23.0876 26.8626 23.4658 27.3594C23.8486 27.8561 24.359 28.1045 24.9971 28.1045C25.6396 28.1045 26.1501 27.8538 26.5283 27.3525C26.9066 26.8467 27.0957 26.1403 27.0957 25.2334C27.0957 24.4222 26.902 23.766 26.5146 23.2646C26.1318 22.7588 25.6214 22.5059 24.9834 22.5059C24.359 22.5059 23.8555 22.7542 23.4727 23.251C23.0898 23.7477 22.8984 24.4587 22.8984 25.3838Z" fill="#A69485"/>
</svg>

