<svg width="33" height="39" viewBox="0 0 33 39" fill="none" xmlns="http://www.w3.org/2000/svg">
<rect y="3" width="33" height="36" rx="2" fill="#A69485"/>
<rect x="3" y="13" width="27" height="23" fill="#F4F6F9"/>
<ellipse cx="5.5" cy="2" rx="1.5" ry="2" fill="#A69485"/>
<ellipse cx="27.5" cy="2" rx="1.5" ry="2" fill="#A69485"/>
<ellipse cx="22.5" cy="2" rx="1.5" ry="2" fill="#A69485"/>
<ellipse cx="18.5" cy="2" rx="1.5" ry="2" fill="#A69485"/>
<ellipse cx="14.5" cy="2" rx="1.5" ry="2" fill="#A69485"/>
<ellipse cx="10.5" cy="2" rx="1.5" ry="2" fill="#A69485"/>
<path d="M7.69531 29V19.0469H10.5049C11.3708 19.0469 12.1364 19.2383 12.8018 19.6211C13.4671 20.0039 13.9798 20.5485 14.3398 21.2549C14.7044 21.9613 14.889 22.7725 14.8936 23.6885V24.3242C14.8936 25.263 14.7113 26.0856 14.3467 26.792C13.9867 27.4984 13.4694 28.0407 12.7949 28.4189C12.125 28.7972 11.3434 28.9909 10.4502 29H7.69531ZM9.00781 20.127V27.9268H10.3887C11.4004 27.9268 12.1865 27.6123 12.7471 26.9834C13.3122 26.3545 13.5947 25.459 13.5947 24.2969V23.7158C13.5947 22.5856 13.3281 21.7083 12.7949 21.084C12.2663 20.4551 11.5143 20.1361 10.5391 20.127H9.00781ZM18.0586 29H16.7939V21.6035H18.0586V29ZM16.6914 19.6416C16.6914 19.4365 16.7529 19.2633 16.876 19.1221C17.0036 18.9808 17.1904 18.9102 17.4365 18.9102C17.6826 18.9102 17.8695 18.9808 17.9971 19.1221C18.1247 19.2633 18.1885 19.4365 18.1885 19.6416C18.1885 19.8467 18.1247 20.0176 17.9971 20.1543C17.8695 20.291 17.6826 20.3594 17.4365 20.3594C17.1904 20.3594 17.0036 20.291 16.876 20.1543C16.7529 20.0176 16.6914 19.8467 16.6914 19.6416ZM23.0557 28.1045C23.5068 28.1045 23.901 27.9678 24.2383 27.6943C24.5755 27.4209 24.7624 27.0791 24.7988 26.6689H25.9951C25.9723 27.0928 25.8265 27.4961 25.5576 27.8789C25.2887 28.2617 24.9287 28.5671 24.4775 28.7949C24.0309 29.0228 23.557 29.1367 23.0557 29.1367C22.0485 29.1367 21.2464 28.8018 20.6494 28.1318C20.057 27.4574 19.7607 26.5368 19.7607 25.3701V25.1582C19.7607 24.4382 19.8929 23.7979 20.1572 23.2373C20.4215 22.6768 20.7998 22.2415 21.292 21.9316C21.7887 21.6217 22.3743 21.4668 23.0488 21.4668C23.8783 21.4668 24.5664 21.7152 25.1133 22.2119C25.6647 22.7087 25.9587 23.3535 25.9951 24.1465H24.7988C24.7624 23.668 24.5801 23.276 24.252 22.9707C23.9284 22.6608 23.5273 22.5059 23.0488 22.5059C22.4062 22.5059 21.9072 22.7383 21.5518 23.2031C21.2008 23.6634 21.0254 24.3311 21.0254 25.2061V25.4453C21.0254 26.2975 21.2008 26.9538 21.5518 27.4141C21.9027 27.8743 22.404 28.1045 23.0557 28.1045Z" fill="#A69485"/>
</svg>

