<svg width="33" height="39" viewBox="0 0 33 39" fill="none" xmlns="http://www.w3.org/2000/svg">
<rect y="3" width="33" height="36" rx="2" fill="#C4C4C4"/>
<rect x="3" y="13" width="27" height="23" fill="#F4F6F9"/>
<ellipse cx="5.5" cy="2" rx="1.5" ry="2" fill="#C4C4C4"/>
<ellipse cx="27.5" cy="2" rx="1.5" ry="2" fill="#C4C4C4"/>
<ellipse cx="22.5" cy="2" rx="1.5" ry="2" fill="#C4C4C4"/>
<ellipse cx="18.5" cy="2" rx="1.5" ry="2" fill="#C4C4C4"/>
<ellipse cx="14.5" cy="2" rx="1.5" ry="2" fill="#C4C4C4"/>
<ellipse cx="10.5" cy="2" rx="1.5" ry="2" fill="#C4C4C4"/>
<path d="M11.7285 24.3994H7.41504V27.9268H12.4258V29H6.10254V19.0469H12.3574V20.127H7.41504V23.3262H11.7285V24.3994ZM15.0576 21.6035L15.0986 22.5332C15.6637 21.8223 16.402 21.4668 17.3135 21.4668C18.8766 21.4668 19.665 22.3486 19.6787 24.1123V29H18.4141V24.1055C18.4095 23.5723 18.2865 23.1781 18.0449 22.9229C17.8079 22.6676 17.4365 22.54 16.9307 22.54C16.5205 22.54 16.1605 22.6494 15.8506 22.8682C15.5407 23.0869 15.2992 23.374 15.126 23.7295V29H13.8613V21.6035H15.0576ZM24.6553 29.1367C23.6527 29.1367 22.8369 28.8086 22.208 28.1523C21.5791 27.4915 21.2646 26.6097 21.2646 25.5068V25.2744C21.2646 24.5407 21.4036 23.8867 21.6816 23.3125C21.9642 22.7337 22.3561 22.2826 22.8574 21.959C23.3633 21.6309 23.9102 21.4668 24.498 21.4668C25.4596 21.4668 26.207 21.7835 26.7402 22.417C27.2734 23.0505 27.54 23.9574 27.54 25.1377V25.6641H22.5293C22.5475 26.3932 22.7594 26.9834 23.165 27.4346C23.5752 27.8812 24.0947 28.1045 24.7236 28.1045C25.1702 28.1045 25.5485 28.0133 25.8584 27.8311C26.1683 27.6488 26.4395 27.4072 26.6719 27.1064L27.4443 27.708C26.8245 28.6605 25.8949 29.1367 24.6553 29.1367ZM24.498 22.5059C23.9876 22.5059 23.5592 22.6927 23.2129 23.0664C22.8665 23.4355 22.6523 23.9551 22.5703 24.625H26.2754V24.5293C26.2389 23.8867 26.0658 23.39 25.7559 23.0391C25.446 22.6836 25.0267 22.5059 24.498 22.5059Z" fill="#C4C4C4"/>
</svg>

