<svg width="33" height="39" viewBox="0 0 33 39" fill="none" xmlns="http://www.w3.org/2000/svg">
<rect y="3" width="33" height="36" rx="2" fill="#A69485"/>
<rect x="3" y="13" width="27" height="23" fill="#F4F6F9"/>
<ellipse cx="5.5" cy="2" rx="1.5" ry="2" fill="#A69485"/>
<ellipse cx="27.5" cy="2" rx="1.5" ry="2" fill="#A69485"/>
<ellipse cx="22.5" cy="2" rx="1.5" ry="2" fill="#A69485"/>
<ellipse cx="18.5" cy="2" rx="1.5" ry="2" fill="#A69485"/>
<ellipse cx="14.5" cy="2" rx="1.5" ry="2" fill="#A69485"/>
<ellipse cx="10.5" cy="2" rx="1.5" ry="2" fill="#A69485"/>
<path d="M11.708 24.6045H7.53125V29H6.21875V19.0469H12.3848V20.127H7.53125V23.5312H11.708V24.6045ZM16.6777 29.1367C15.6751 29.1367 14.8594 28.8086 14.2305 28.1523C13.6016 27.4915 13.2871 26.6097 13.2871 25.5068V25.2744C13.2871 24.5407 13.4261 23.8867 13.7041 23.3125C13.9867 22.7337 14.3786 22.2826 14.8799 21.959C15.3857 21.6309 15.9326 21.4668 16.5205 21.4668C17.4821 21.4668 18.2295 21.7835 18.7627 22.417C19.2959 23.0505 19.5625 23.9574 19.5625 25.1377V25.6641H14.5518C14.57 26.3932 14.7819 26.9834 15.1875 27.4346C15.5977 27.8812 16.1172 28.1045 16.7461 28.1045C17.1927 28.1045 17.571 28.0133 17.8809 27.8311C18.1908 27.6488 18.4619 27.4072 18.6943 27.1064L19.4668 27.708C18.847 28.6605 17.9173 29.1367 16.6777 29.1367ZM16.5205 22.5059C16.0101 22.5059 15.5817 22.6927 15.2354 23.0664C14.889 23.4355 14.6748 23.9551 14.5928 24.625H18.2979V24.5293C18.2614 23.8867 18.0882 23.39 17.7783 23.0391C17.4684 22.6836 17.0492 22.5059 16.5205 22.5059ZM27.2939 25.3838C27.2939 26.514 27.0342 27.4232 26.5146 28.1113C25.9951 28.7949 25.2979 29.1367 24.4229 29.1367C23.4886 29.1367 22.7663 28.8063 22.2559 28.1455L22.1943 29H21.0322V18.5H22.2969V22.417C22.8073 21.7835 23.5114 21.4668 24.4092 21.4668C25.307 21.4668 26.0111 21.8063 26.5215 22.4854C27.0365 23.1644 27.2939 24.0941 27.2939 25.2744V25.3838ZM26.0293 25.2402C26.0293 24.3789 25.863 23.7135 25.5303 23.2441C25.1976 22.7747 24.7191 22.54 24.0947 22.54C23.2607 22.54 22.6615 22.9274 22.2969 23.7021V26.9014C22.6842 27.6761 23.2881 28.0635 24.1084 28.0635C24.7145 28.0635 25.1862 27.8288 25.5234 27.3594C25.8607 26.89 26.0293 26.1836 26.0293 25.2402Z" fill="#A69485"/>
</svg>

