<svg width="33" height="39" viewBox="0 0 33 39" fill="none" xmlns="http://www.w3.org/2000/svg">
<rect y="3" width="33" height="36" rx="2" fill="#C4C4C4"/>
<rect x="3" y="13" width="27" height="23" fill="#F4F6F9"/>
<ellipse cx="5.5" cy="2" rx="1.5" ry="2" fill="#C4C4C4"/>
<ellipse cx="27.5" cy="2" rx="1.5" ry="2" fill="#C4C4C4"/>
<ellipse cx="22.5" cy="2" rx="1.5" ry="2" fill="#C4C4C4"/>
<ellipse cx="18.5" cy="2" rx="1.5" ry="2" fill="#C4C4C4"/>
<ellipse cx="14.5" cy="2" rx="1.5" ry="2" fill="#C4C4C4"/>
<ellipse cx="10.5" cy="2" rx="1.5" ry="2" fill="#C4C4C4"/>
<path d="M12.3984 19.0469H13.7178V26.0947C13.7178 27.0472 13.4307 27.7923 12.8564 28.3301C12.2868 28.8678 11.5257 29.1367 10.5732 29.1367C9.58431 29.1367 8.81413 28.8838 8.2627 28.3779C7.71126 27.8721 7.43555 27.1634 7.43555 26.252H8.74805C8.74805 26.8216 8.90299 27.266 9.21289 27.585C9.52734 27.904 9.98079 28.0635 10.5732 28.0635C11.1156 28.0635 11.5531 27.8926 11.8857 27.5508C12.223 27.209 12.3939 26.7305 12.3984 26.1152V19.0469ZM20.3213 28.2686C19.8291 28.8473 19.1068 29.1367 18.1543 29.1367C17.3659 29.1367 16.7643 28.9089 16.3496 28.4531C15.9395 27.9928 15.7321 27.3138 15.7275 26.416V21.6035H16.9922V26.3818C16.9922 27.5029 17.4479 28.0635 18.3594 28.0635C19.3255 28.0635 19.9681 27.7035 20.2871 26.9834V21.6035H21.5518V29H20.3486L20.3213 28.2686ZM24.8535 29H23.5889V18.5H24.8535V29Z" fill="#C4C4C4"/>
</svg>

