<svg width="33" height="39" viewBox="0 0 33 39" fill="none" xmlns="http://www.w3.org/2000/svg">
<rect y="3" width="33" height="36" rx="2" fill="#A69485"/>
<rect x="3" y="13" width="27" height="23" fill="#F4F6F9"/>
<ellipse cx="5.5" cy="2" rx="1.5" ry="2" fill="#A69485"/>
<ellipse cx="27.5" cy="2" rx="1.5" ry="2" fill="#A69485"/>
<ellipse cx="22.5" cy="2" rx="1.5" ry="2" fill="#A69485"/>
<ellipse cx="18.5" cy="2" rx="1.5" ry="2" fill="#A69485"/>
<ellipse cx="14.5" cy="2" rx="1.5" ry="2" fill="#A69485"/>
<ellipse cx="10.5" cy="2" rx="1.5" ry="2" fill="#A69485"/>
<path d="M10.2383 19.0469H11.5576V26.0947C11.5576 27.0472 11.2705 27.7923 10.6963 28.3301C10.1266 28.8678 9.36556 29.1367 8.41309 29.1367C7.42415 29.1367 6.65397 28.8838 6.10254 28.3779C5.55111 27.8721 5.27539 27.1634 5.27539 26.252H6.58789C6.58789 26.8216 6.74284 27.266 7.05273 27.585C7.36719 27.904 7.82064 28.0635 8.41309 28.0635C8.9554 28.0635 9.3929 27.8926 9.72559 27.5508C10.0628 27.209 10.2337 26.7305 10.2383 26.1152V19.0469ZM18.1611 28.2686C17.6689 28.8473 16.9466 29.1367 15.9941 29.1367C15.2057 29.1367 14.6042 28.9089 14.1895 28.4531C13.7793 27.9928 13.5719 27.3138 13.5674 26.416V21.6035H14.832V26.3818C14.832 27.5029 15.2878 28.0635 16.1992 28.0635C17.1654 28.0635 17.8079 27.7035 18.127 26.9834V21.6035H19.3916V29H18.1885L18.1611 28.2686ZM22.5156 21.6035L22.5566 22.5332C23.1217 21.8223 23.86 21.4668 24.7715 21.4668C26.3346 21.4668 27.123 22.3486 27.1367 24.1123V29H25.8721V24.1055C25.8675 23.5723 25.7445 23.1781 25.5029 22.9229C25.266 22.6676 24.8945 22.54 24.3887 22.54C23.9785 22.54 23.6185 22.6494 23.3086 22.8682C22.9987 23.0869 22.7572 23.374 22.584 23.7295V29H21.3193V21.6035H22.5156Z" fill="#A69485"/>
</svg>

