<svg width="33" height="39" viewBox="0 0 33 39" fill="none" xmlns="http://www.w3.org/2000/svg">
<rect y="3" width="33" height="36" rx="2" fill="#C4C4C4"/>
<rect x="3" y="13" width="27" height="23" fill="#F4F6F9"/>
<ellipse cx="5.5" cy="2" rx="1.5" ry="2" fill="#C4C4C4"/>
<ellipse cx="27.5" cy="2" rx="1.5" ry="2" fill="#C4C4C4"/>
<ellipse cx="22.5" cy="2" rx="1.5" ry="2" fill="#C4C4C4"/>
<ellipse cx="18.5" cy="2" rx="1.5" ry="2" fill="#C4C4C4"/>
<ellipse cx="14.5" cy="2" rx="1.5" ry="2" fill="#C4C4C4"/>
<ellipse cx="10.5" cy="2" rx="1.5" ry="2" fill="#C4C4C4"/>
<path d="M7.05957 19.0469L10.3135 27.168L13.5674 19.0469H15.2695V29H13.957V25.124L14.0801 20.9404L10.8125 29H9.80762L6.54688 20.9609L6.67676 25.124V29H5.36426V19.0469H7.05957ZM21.9551 29C21.8822 28.8542 21.8229 28.5944 21.7773 28.2207C21.1895 28.8314 20.4876 29.1367 19.6719 29.1367C18.9427 29.1367 18.3434 28.9316 17.874 28.5215C17.4092 28.1068 17.1768 27.5827 17.1768 26.9492C17.1768 26.179 17.4684 25.582 18.0518 25.1582C18.6396 24.7298 19.4645 24.5156 20.5264 24.5156H21.7568V23.9346C21.7568 23.4925 21.6247 23.1416 21.3604 22.8818C21.096 22.6175 20.7064 22.4854 20.1914 22.4854C19.7402 22.4854 19.362 22.5993 19.0566 22.8271C18.7513 23.055 18.5986 23.3307 18.5986 23.6543H17.3271C17.3271 23.2852 17.457 22.9297 17.7168 22.5879C17.9811 22.2415 18.3366 21.9681 18.7832 21.7676C19.2344 21.5671 19.7288 21.4668 20.2666 21.4668C21.1188 21.4668 21.7865 21.681 22.2695 22.1094C22.7526 22.5332 23.0033 23.1188 23.0215 23.8662V27.2705C23.0215 27.9495 23.1081 28.4896 23.2812 28.8906V29H21.9551ZM19.8564 28.0361C20.2529 28.0361 20.6289 27.9336 20.9844 27.7285C21.3398 27.5234 21.5973 27.2568 21.7568 26.9287V25.4111H20.7656C19.2161 25.4111 18.4414 25.8646 18.4414 26.7715C18.4414 27.168 18.5736 27.4779 18.8379 27.7012C19.1022 27.9245 19.4417 28.0361 19.8564 28.0361ZM28.5791 22.7383C28.3877 22.7064 28.1803 22.6904 27.957 22.6904C27.1276 22.6904 26.5648 23.0436 26.2686 23.75V29H25.0039V21.6035H26.2344L26.2549 22.458C26.6696 21.7972 27.2575 21.4668 28.0186 21.4668C28.2646 21.4668 28.4515 21.4987 28.5791 21.5625V22.7383Z" fill="#C4C4C4"/>
</svg>
  
