<svg width="33" height="39" viewBox="0 0 33 39" fill="none" xmlns="http://www.w3.org/2000/svg">
<rect y="3" width="33" height="36" rx="2" fill="#C4C4C4"/>
<rect x="3" y="13" width="27" height="23" fill="#F4F6F9"/>
<ellipse cx="5.5" cy="2" rx="1.5" ry="2" fill="#C4C4C4"/>
<ellipse cx="27.5" cy="2" rx="1.5" ry="2" fill="#C4C4C4"/>
<ellipse cx="22.5" cy="2" rx="1.5" ry="2" fill="#C4C4C4"/>
<ellipse cx="18.5" cy="2" rx="1.5" ry="2" fill="#C4C4C4"/>
<ellipse cx="14.5" cy="2" rx="1.5" ry="2" fill="#C4C4C4"/>
<ellipse cx="10.5" cy="2" rx="1.5" ry="2" fill="#C4C4C4"/>
<path d="M6.1709 19.0469L9.4248 27.168L12.6787 19.0469H14.3809V29H13.0684V25.124L13.1914 20.9404L9.92383 29H8.91895L5.6582 20.9609L5.78809 25.124V29H4.47559V19.0469H6.1709ZM21.0664 29C20.9935 28.8542 20.9342 28.5944 20.8887 28.2207C20.3008 28.8314 19.599 29.1367 18.7832 29.1367C18.054 29.1367 17.4548 28.9316 16.9854 28.5215C16.5205 28.1068 16.2881 27.5827 16.2881 26.9492C16.2881 26.179 16.5798 25.582 17.1631 25.1582C17.751 24.7298 18.5758 24.5156 19.6377 24.5156H20.8682V23.9346C20.8682 23.4925 20.736 23.1416 20.4717 22.8818C20.2074 22.6175 19.8177 22.4854 19.3027 22.4854C18.8516 22.4854 18.4733 22.5993 18.168 22.8271C17.8626 23.055 17.71 23.3307 17.71 23.6543H16.4385C16.4385 23.2852 16.5684 22.9297 16.8281 22.5879C17.0924 22.2415 17.4479 21.9681 17.8945 21.7676C18.3457 21.5671 18.8402 21.4668 19.3779 21.4668C20.2301 21.4668 20.8978 21.681 21.3809 22.1094C21.8639 22.5332 22.1146 23.1188 22.1328 23.8662V27.2705C22.1328 27.9495 22.2194 28.4896 22.3926 28.8906V29H21.0664ZM18.9678 28.0361C19.3643 28.0361 19.7402 27.9336 20.0957 27.7285C20.4512 27.5234 20.7087 27.2568 20.8682 26.9287V25.4111H19.877C18.3275 25.4111 17.5527 25.8646 17.5527 26.7715C17.5527 27.168 17.6849 27.4779 17.9492 27.7012C18.2135 27.9245 18.5531 28.0361 18.9678 28.0361ZM26.4258 27.1475L28.1484 21.6035H29.502L26.5283 30.1416C26.068 31.3721 25.3366 31.9873 24.334 31.9873L24.0947 31.9668L23.623 31.8779V30.8525L23.9648 30.8799C24.3932 30.8799 24.7259 30.7933 24.9629 30.6201C25.2044 30.4469 25.4027 30.1302 25.5576 29.6699L25.8379 28.918L23.1992 21.6035H24.5801L26.4258 27.1475Z" fill="#C4C4C4"/>
</svg>

