<svg width="33" height="39" viewBox="0 0 33 39" fill="none" xmlns="http://www.w3.org/2000/svg">
<rect y="3" width="33" height="36" rx="2" fill="#C4C4C4"/>
<rect x="3" y="13" width="27" height="23" fill="#F4F6F9"/>
<ellipse cx="5.5" cy="2" rx="1.5" ry="2" fill="#C4C4C4"/>
<ellipse cx="27.5" cy="2" rx="1.5" ry="2" fill="#C4C4C4"/>
<ellipse cx="22.5" cy="2" rx="1.5" ry="2" fill="#C4C4C4"/>
<ellipse cx="18.5" cy="2" rx="1.5" ry="2" fill="#C4C4C4"/>
<ellipse cx="14.5" cy="2" rx="1.5" ry="2" fill="#C4C4C4"/>
<ellipse cx="10.5" cy="2" rx="1.5" ry="2" fill="#C4C4C4"/>
<path d="M12.9863 29H11.667L6.65625 21.3301V29H5.33691V19.0469H6.65625L11.6807 26.751V19.0469H12.9863V29ZM14.7842 25.2334C14.7842 24.5088 14.9255 23.8571 15.208 23.2783C15.4951 22.6995 15.8916 22.2529 16.3975 21.9385C16.9079 21.624 17.4889 21.4668 18.1406 21.4668C19.1478 21.4668 19.9613 21.8154 20.5811 22.5127C21.2054 23.21 21.5176 24.1374 21.5176 25.2949V25.3838C21.5176 26.1038 21.3786 26.751 21.1006 27.3252C20.8271 27.8949 20.4329 28.3392 19.918 28.6582C19.4076 28.9772 18.8197 29.1367 18.1543 29.1367C17.1517 29.1367 16.3382 28.7881 15.7139 28.0908C15.0941 27.3936 14.7842 26.4707 14.7842 25.3223V25.2334ZM16.0557 25.3838C16.0557 26.2041 16.2448 26.8626 16.623 27.3594C17.0059 27.8561 17.5163 28.1045 18.1543 28.1045C18.7969 28.1045 19.3073 27.8538 19.6855 27.3525C20.0638 26.8467 20.2529 26.1403 20.2529 25.2334C20.2529 24.4222 20.0592 23.766 19.6719 23.2646C19.2891 22.7588 18.7786 22.5059 18.1406 22.5059C17.5163 22.5059 17.0127 22.7542 16.6299 23.251C16.2471 23.7477 16.0557 24.4587 16.0557 25.3838ZM25.4346 27.2842L27.2666 21.6035H28.5586L25.9062 29H24.9424L22.2627 21.6035H23.5547L25.4346 27.2842Z" fill="#C4C4C4"/>
</svg>

