<svg width="33" height="39" viewBox="0 0 33 39" fill="none" xmlns="http://www.w3.org/2000/svg">
<rect y="3" width="33" height="36" rx="2" fill="#A69485"/>
<rect x="3" y="13" width="27" height="23" fill="#F4F6F9"/>
<ellipse cx="5.5" cy="2" rx="1.5" ry="2" fill="#A69485"/>
<ellipse cx="27.5" cy="2" rx="1.5" ry="2" fill="#A69485"/>
<ellipse cx="22.5" cy="2" rx="1.5" ry="2" fill="#A69485"/>
<ellipse cx="18.5" cy="2" rx="1.5" ry="2" fill="#A69485"/>
<ellipse cx="14.5" cy="2" rx="1.5" ry="2" fill="#A69485"/>
<ellipse cx="10.5" cy="2" rx="1.5" ry="2" fill="#A69485"/>
<path d="M14.5449 24.3447C14.5449 25.32 14.3809 26.1722 14.0527 26.9014C13.7246 27.626 13.2598 28.1797 12.6582 28.5625C12.0566 28.9453 11.3548 29.1367 10.5527 29.1367C9.76888 29.1367 9.07389 28.9453 8.46777 28.5625C7.86165 28.1751 7.38997 27.626 7.05273 26.915C6.72005 26.1995 6.54915 25.3724 6.54004 24.4336V23.7158C6.54004 22.7588 6.70638 21.9134 7.03906 21.1797C7.37174 20.446 7.84115 19.8854 8.44727 19.498C9.05794 19.1061 9.75521 18.9102 10.5391 18.9102C11.3366 18.9102 12.0384 19.1038 12.6445 19.4912C13.2552 19.874 13.7246 20.4323 14.0527 21.166C14.3809 21.8952 14.5449 22.7451 14.5449 23.7158V24.3447ZM13.2393 23.7021C13.2393 22.5218 13.0023 21.6172 12.5283 20.9883C12.0544 20.3548 11.3913 20.0381 10.5391 20.0381C9.70964 20.0381 9.05566 20.3548 8.57715 20.9883C8.10319 21.6172 7.85938 22.4922 7.8457 23.6133V24.3447C7.8457 25.4886 8.08496 26.3887 8.56348 27.0449C9.04655 27.6966 9.70964 28.0225 10.5527 28.0225C11.4004 28.0225 12.0566 27.7148 12.5215 27.0996C12.9863 26.4798 13.2256 25.5934 13.2393 24.4404V23.7021ZM19.2822 28.1045C19.7334 28.1045 20.1276 27.9678 20.4648 27.6943C20.8021 27.4209 20.9889 27.0791 21.0254 26.6689H22.2217C22.1989 27.0928 22.0531 27.4961 21.7842 27.8789C21.5153 28.2617 21.1553 28.5671 20.7041 28.7949C20.2575 29.0228 19.7835 29.1367 19.2822 29.1367C18.2751 29.1367 17.473 28.8018 16.876 28.1318C16.2835 27.4574 15.9873 26.5368 15.9873 25.3701V25.1582C15.9873 24.4382 16.1195 23.7979 16.3838 23.2373C16.6481 22.6768 17.0264 22.2415 17.5186 21.9316C18.0153 21.6217 18.6009 21.4668 19.2754 21.4668C20.1048 21.4668 20.793 21.7152 21.3398 22.2119C21.8913 22.7087 22.1852 23.3535 22.2217 24.1465H21.0254C20.9889 23.668 20.8066 23.276 20.4785 22.9707C20.1549 22.6608 19.7539 22.5059 19.2754 22.5059C18.6328 22.5059 18.1338 22.7383 17.7783 23.2031C17.4274 23.6634 17.252 24.3311 17.252 25.2061V25.4453C17.252 26.2975 17.4274 26.9538 17.7783 27.4141C18.1292 27.8743 18.6305 28.1045 19.2822 28.1045ZM25.3594 19.8125V21.6035H26.7402V22.5811H25.3594V27.168C25.3594 27.4642 25.4209 27.6875 25.5439 27.8379C25.667 27.9837 25.8766 28.0566 26.1729 28.0566C26.3187 28.0566 26.5192 28.0293 26.7744 27.9746V29C26.4417 29.0911 26.1182 29.1367 25.8037 29.1367C25.2386 29.1367 24.8125 28.9658 24.5254 28.624C24.2383 28.2822 24.0947 27.7969 24.0947 27.168V22.5811H22.748V21.6035H24.0947V19.8125H25.3594Z" fill="#A69485"/>
</svg>

