<svg width="33" height="39" viewBox="0 0 33 39" fill="none" xmlns="http://www.w3.org/2000/svg">
<rect y="3" width="33" height="36" rx="2" fill="#C4C4C4"/>
<rect x="3" y="13" width="27" height="23" fill="#F4F6F9"/>
<ellipse cx="5.5" cy="2" rx="1.5" ry="2" fill="#C4C4C4"/>
<ellipse cx="27.5" cy="2" rx="1.5" ry="2" fill="#C4C4C4"/>
<ellipse cx="22.5" cy="2" rx="1.5" ry="2" fill="#C4C4C4"/>
<ellipse cx="18.5" cy="2" rx="1.5" ry="2" fill="#C4C4C4"/>
<ellipse cx="14.5" cy="2" rx="1.5" ry="2" fill="#C4C4C4"/>
<ellipse cx="10.5" cy="2" rx="1.5" ry="2" fill="#C4C4C4"/>
<path d="M8.78906 24.5635C7.66341 24.2399 6.8431 23.8434 6.32812 23.374C5.81771 22.9001 5.5625 22.3167 5.5625 21.624C5.5625 20.8402 5.87467 20.193 6.49902 19.6826C7.12793 19.1676 7.94368 18.9102 8.94629 18.9102C9.62988 18.9102 10.2383 19.0423 10.7715 19.3066C11.3092 19.571 11.724 19.9355 12.0156 20.4004C12.3118 20.8652 12.46 21.3734 12.46 21.9248H11.1406C11.1406 21.3232 10.9492 20.8516 10.5664 20.5098C10.1836 20.1634 9.64355 19.9902 8.94629 19.9902C8.29915 19.9902 7.79329 20.1338 7.42871 20.4209C7.06868 20.7035 6.88867 21.0977 6.88867 21.6035C6.88867 22.0091 7.05957 22.3532 7.40137 22.6357C7.74772 22.9137 8.33333 23.1689 9.1582 23.4014C9.98763 23.6338 10.6348 23.8913 11.0996 24.1738C11.569 24.4518 11.9154 24.7777 12.1387 25.1514C12.3665 25.5251 12.4805 25.9648 12.4805 26.4707C12.4805 27.2773 12.166 27.9245 11.5371 28.4121C10.9082 28.8952 10.0674 29.1367 9.01465 29.1367C8.33105 29.1367 7.69303 29.0068 7.10059 28.7471C6.50814 28.4827 6.05013 28.1227 5.72656 27.667C5.40755 27.2113 5.24805 26.694 5.24805 26.1152H6.56738C6.56738 26.7168 6.78841 27.193 7.23047 27.5439C7.67708 27.8903 8.27181 28.0635 9.01465 28.0635C9.70736 28.0635 10.2383 27.9222 10.6074 27.6396C10.9766 27.3571 11.1611 26.972 11.1611 26.4844C11.1611 25.9967 10.9902 25.6208 10.6484 25.3564C10.3066 25.0876 9.68685 24.8232 8.78906 24.5635ZM17.04 29.1367C16.0374 29.1367 15.2217 28.8086 14.5928 28.1523C13.9639 27.4915 13.6494 26.6097 13.6494 25.5068V25.2744C13.6494 24.5407 13.7884 23.8867 14.0664 23.3125C14.349 22.7337 14.7409 22.2826 15.2422 21.959C15.748 21.6309 16.2949 21.4668 16.8828 21.4668C17.8444 21.4668 18.5918 21.7835 19.125 22.417C19.6582 23.0505 19.9248 23.9574 19.9248 25.1377V25.6641H14.9141C14.9323 26.3932 15.1442 26.9834 15.5498 27.4346C15.96 27.8812 16.4795 28.1045 17.1084 28.1045C17.555 28.1045 17.9333 28.0133 18.2432 27.8311C18.5531 27.6488 18.8242 27.4072 19.0566 27.1064L19.8291 27.708C19.2093 28.6605 18.2796 29.1367 17.04 29.1367ZM16.8828 22.5059C16.3724 22.5059 15.944 22.6927 15.5977 23.0664C15.2513 23.4355 15.0371 23.9551 14.9551 24.625H18.6602V24.5293C18.6237 23.8867 18.4505 23.39 18.1406 23.0391C17.8307 22.6836 17.4115 22.5059 16.8828 22.5059ZM27.6426 25.3838C27.6426 26.5094 27.3851 27.4163 26.8701 28.1045C26.3551 28.7926 25.6579 29.1367 24.7783 29.1367C23.8805 29.1367 23.1742 28.8519 22.6592 28.2822V31.8438H21.3945V21.6035H22.5498L22.6113 22.4238C23.1263 21.7858 23.8418 21.4668 24.7578 21.4668C25.6465 21.4668 26.3483 21.8018 26.8633 22.4717C27.3828 23.1416 27.6426 24.0736 27.6426 25.2676V25.3838ZM26.3779 25.2402C26.3779 24.4062 26.2002 23.7477 25.8447 23.2646C25.4893 22.7816 25.0016 22.54 24.3818 22.54C23.6162 22.54 23.042 22.8796 22.6592 23.5586V27.0928C23.0374 27.7673 23.6162 28.1045 24.3955 28.1045C25.0016 28.1045 25.4824 27.8652 25.8379 27.3867C26.1979 26.9036 26.3779 26.1882 26.3779 25.2402Z" fill="#C4C4C4"/>
</svg>

