<svg width="59" height="27" viewBox="0 0 59 27" fill="none" xmlns="http://www.w3.org/2000/svg">
<rect x="1" y="1" width="57" height="25" rx="7" stroke="#594031" stroke-width="2"/>
<path d="M21.126 18H14.6045V17.0908L18.0498 13.2627C18.5602 12.6839 18.9111 12.2145 19.1025 11.8545C19.2985 11.4899 19.3965 11.1139 19.3965 10.7266C19.3965 10.207 19.2393 9.78092 18.9248 9.44824C18.6104 9.11556 18.1911 8.94922 17.667 8.94922C17.0381 8.94922 16.5482 9.12923 16.1973 9.48926C15.8509 9.84473 15.6777 10.3415 15.6777 10.9795H14.4131C14.4131 10.0635 14.707 9.32292 15.2949 8.75781C15.8874 8.19271 16.6781 7.91016 17.667 7.91016C18.5921 7.91016 19.3236 8.15397 19.8613 8.6416C20.3991 9.12467 20.668 9.76953 20.668 10.5762C20.668 11.556 20.0436 12.7227 18.7949 14.0762L16.1289 16.9678H21.126V18ZM28.707 13.7549C28.707 15.236 28.4541 16.3366 27.9482 17.0566C27.4424 17.7767 26.6517 18.1367 25.5762 18.1367C24.5143 18.1367 23.7282 17.7858 23.2178 17.084C22.7074 16.3776 22.443 15.3249 22.4248 13.9258V12.2373C22.4248 10.7744 22.6777 9.6875 23.1836 8.97656C23.6895 8.26562 24.4824 7.91016 25.5625 7.91016C26.6335 7.91016 27.4219 8.25423 27.9277 8.94238C28.4336 9.62598 28.6934 10.6833 28.707 12.1143V13.7549ZM27.4424 12.0254C27.4424 10.9544 27.292 10.1751 26.9912 9.6875C26.6904 9.19531 26.2142 8.94922 25.5625 8.94922C24.9154 8.94922 24.4437 9.19303 24.1475 9.68066C23.8512 10.1683 23.6986 10.918 23.6895 11.9297V13.9531C23.6895 15.0286 23.8444 15.8239 24.1543 16.3389C24.4688 16.8493 24.9427 17.1045 25.5762 17.1045C26.2005 17.1045 26.6631 16.863 26.9639 16.3799C27.2692 15.8968 27.4287 15.1357 27.4424 14.0967V12.0254ZM36.8486 18H30.3271V17.0908L33.7725 13.2627C34.2829 12.6839 34.6338 12.2145 34.8252 11.8545C35.0212 11.4899 35.1191 11.1139 35.1191 10.7266C35.1191 10.207 34.9619 9.78092 34.6475 9.44824C34.333 9.11556 33.9137 8.94922 33.3896 8.94922C32.7607 8.94922 32.2708 9.12923 31.9199 9.48926C31.5736 9.84473 31.4004 10.3415 31.4004 10.9795H30.1357C30.1357 10.0635 30.4297 9.32292 31.0176 8.75781C31.61 8.19271 32.4007 7.91016 33.3896 7.91016C34.3148 7.91016 35.0462 8.15397 35.584 8.6416C36.1217 9.12467 36.3906 9.76953 36.3906 10.5762C36.3906 11.556 35.7663 12.7227 34.5176 14.0762L31.8516 16.9678H36.8486V18ZM40.0273 12.4082H40.9775C41.5745 12.3991 42.0439 12.2419 42.3857 11.9365C42.7275 11.6312 42.8984 11.2188 42.8984 10.6992C42.8984 9.53255 42.3174 8.94922 41.1553 8.94922C40.6084 8.94922 40.1709 9.10645 39.8428 9.4209C39.5192 9.73079 39.3574 10.1432 39.3574 10.6582H38.0928C38.0928 9.86979 38.3799 9.21582 38.9541 8.69629C39.5329 8.1722 40.2666 7.91016 41.1553 7.91016C42.0941 7.91016 42.8301 8.15853 43.3633 8.65527C43.8965 9.15202 44.1631 9.84245 44.1631 10.7266C44.1631 11.1595 44.0218 11.5788 43.7393 11.9844C43.4613 12.39 43.0807 12.693 42.5977 12.8936C43.1445 13.0667 43.5661 13.3538 43.8623 13.7549C44.1631 14.1559 44.3135 14.6458 44.3135 15.2246C44.3135 16.1178 44.0218 16.8265 43.4385 17.3506C42.8551 17.8747 42.0964 18.1367 41.1621 18.1367C40.2279 18.1367 39.4668 17.8838 38.8789 17.3779C38.2956 16.8721 38.0039 16.2044 38.0039 15.375H39.2754C39.2754 15.8991 39.4463 16.3184 39.7881 16.6328C40.1299 16.9473 40.5879 17.1045 41.1621 17.1045C41.7728 17.1045 42.2399 16.945 42.5635 16.626C42.887 16.307 43.0488 15.849 43.0488 15.252C43.0488 14.6732 42.8711 14.2288 42.5156 13.9189C42.1602 13.609 41.6475 13.4495 40.9775 13.4404H40.0273V12.4082Z" fill="#594031"/>
</svg>

