<svg width="59" height="27" viewBox="0 0 59 27" fill="none" xmlns="http://www.w3.org/2000/svg">
<rect x="1" y="1" width="57" height="25" rx="7" stroke="#594031" stroke-width="2"/>
<path d="M21.126 18H14.6045V17.0908L18.0498 13.2627C18.5602 12.6839 18.9111 12.2145 19.1025 11.8545C19.2985 11.4899 19.3965 11.1139 19.3965 10.7266C19.3965 10.207 19.2393 9.78092 18.9248 9.44824C18.6104 9.11556 18.1911 8.94922 17.667 8.94922C17.0381 8.94922 16.5482 9.12923 16.1973 9.48926C15.8509 9.84473 15.6777 10.3415 15.6777 10.9795H14.4131C14.4131 10.0635 14.707 9.32292 15.2949 8.75781C15.8874 8.19271 16.6781 7.91016 17.667 7.91016C18.5921 7.91016 19.3236 8.15397 19.8613 8.6416C20.3991 9.12467 20.668 9.76953 20.668 10.5762C20.668 11.556 20.0436 12.7227 18.7949 14.0762L16.1289 16.9678H21.126V18ZM28.707 13.7549C28.707 15.236 28.4541 16.3366 27.9482 17.0566C27.4424 17.7767 26.6517 18.1367 25.5762 18.1367C24.5143 18.1367 23.7282 17.7858 23.2178 17.084C22.7074 16.3776 22.443 15.3249 22.4248 13.9258V12.2373C22.4248 10.7744 22.6777 9.6875 23.1836 8.97656C23.6895 8.26562 24.4824 7.91016 25.5625 7.91016C26.6335 7.91016 27.4219 8.25423 27.9277 8.94238C28.4336 9.62598 28.6934 10.6833 28.707 12.1143V13.7549ZM27.4424 12.0254C27.4424 10.9544 27.292 10.1751 26.9912 9.6875C26.6904 9.19531 26.2142 8.94922 25.5625 8.94922C24.9154 8.94922 24.4437 9.19303 24.1475 9.68066C23.8512 10.1683 23.6986 10.918 23.6895 11.9297V13.9531C23.6895 15.0286 23.8444 15.8239 24.1543 16.3389C24.4688 16.8493 24.9427 17.1045 25.5762 17.1045C26.2005 17.1045 26.6631 16.863 26.9639 16.3799C27.2692 15.8968 27.4287 15.1357 27.4424 14.0967V12.0254ZM36.8486 18H30.3271V17.0908L33.7725 13.2627C34.2829 12.6839 34.6338 12.2145 34.8252 11.8545C35.0212 11.4899 35.1191 11.1139 35.1191 10.7266C35.1191 10.207 34.9619 9.78092 34.6475 9.44824C34.333 9.11556 33.9137 8.94922 33.3896 8.94922C32.7607 8.94922 32.2708 9.12923 31.9199 9.48926C31.5736 9.84473 31.4004 10.3415 31.4004 10.9795H30.1357C30.1357 10.0635 30.4297 9.32292 31.0176 8.75781C31.61 8.19271 32.4007 7.91016 33.3896 7.91016C34.3148 7.91016 35.0462 8.15397 35.584 8.6416C36.1217 9.12467 36.3906 9.76953 36.3906 10.5762C36.3906 11.556 35.7663 12.7227 34.5176 14.0762L31.8516 16.9678H36.8486V18ZM44.2246 10.6445C44.2246 11.1413 44.0924 11.5833 43.8281 11.9707C43.5684 12.3581 43.2152 12.6611 42.7686 12.8799C43.2881 13.1032 43.6982 13.429 43.999 13.8574C44.3044 14.2858 44.457 14.7712 44.457 15.3135C44.457 16.1748 44.1654 16.8607 43.582 17.3711C43.0033 17.8815 42.2399 18.1367 41.292 18.1367C40.335 18.1367 39.5671 17.8815 38.9883 17.3711C38.4141 16.8561 38.127 16.1702 38.127 15.3135C38.127 14.7757 38.2728 14.2904 38.5645 13.8574C38.8607 13.4245 39.2686 13.0964 39.7881 12.873C39.346 12.6543 38.9974 12.3512 38.7422 11.9639C38.487 11.5765 38.3594 11.1367 38.3594 10.6445C38.3594 9.80599 38.6283 9.14062 39.166 8.64844C39.7038 8.15625 40.4124 7.91016 41.292 7.91016C42.167 7.91016 42.8734 8.15625 43.4111 8.64844C43.9535 9.14062 44.2246 9.80599 44.2246 10.6445ZM43.1924 15.2861C43.1924 14.7301 43.0146 14.2767 42.6592 13.9258C42.3083 13.5749 41.848 13.3994 41.2783 13.3994C40.7087 13.3994 40.2507 13.5726 39.9043 13.9189C39.5625 14.2653 39.3916 14.721 39.3916 15.2861C39.3916 15.8512 39.5579 16.2956 39.8906 16.6191C40.2279 16.9427 40.695 17.1045 41.292 17.1045C41.8844 17.1045 42.3493 16.9427 42.6865 16.6191C43.0238 16.291 43.1924 15.8467 43.1924 15.2861ZM41.292 8.94922C40.7952 8.94922 40.3919 9.10417 40.082 9.41406C39.7767 9.7194 39.624 10.1364 39.624 10.665C39.624 11.1709 39.7744 11.5811 40.0752 11.8955C40.3805 12.2054 40.7861 12.3604 41.292 12.3604C41.7979 12.3604 42.2012 12.2054 42.502 11.8955C42.8073 11.5811 42.96 11.1709 42.96 10.665C42.96 10.1592 42.8027 9.74674 42.4883 9.42773C42.1738 9.10872 41.7751 8.94922 41.292 8.94922Z" fill="#594031"/>
</svg>

