<svg width="59" height="27" viewBox="0 0 59 27" fill="none" xmlns="http://www.w3.org/2000/svg">
<rect x="1" y="1" width="57" height="25" rx="7" stroke="#594031" stroke-width="2"/>
<path d="M21.126 18H14.6045V17.0908L18.0498 13.2627C18.5602 12.6839 18.9111 12.2145 19.1025 11.8545C19.2985 11.4899 19.3965 11.1139 19.3965 10.7266C19.3965 10.207 19.2393 9.78092 18.9248 9.44824C18.6104 9.11556 18.1911 8.94922 17.667 8.94922C17.0381 8.94922 16.5482 9.12923 16.1973 9.48926C15.8509 9.84473 15.6777 10.3415 15.6777 10.9795H14.4131C14.4131 10.0635 14.707 9.32292 15.2949 8.75781C15.8874 8.19271 16.6781 7.91016 17.667 7.91016C18.5921 7.91016 19.3236 8.15397 19.8613 8.6416C20.3991 9.12467 20.668 9.76953 20.668 10.5762C20.668 11.556 20.0436 12.7227 18.7949 14.0762L16.1289 16.9678H21.126V18ZM28.707 13.7549C28.707 15.236 28.4541 16.3366 27.9482 17.0566C27.4424 17.7767 26.6517 18.1367 25.5762 18.1367C24.5143 18.1367 23.7282 17.7858 23.2178 17.084C22.7074 16.3776 22.443 15.3249 22.4248 13.9258V12.2373C22.4248 10.7744 22.6777 9.6875 23.1836 8.97656C23.6895 8.26562 24.4824 7.91016 25.5625 7.91016C26.6335 7.91016 27.4219 8.25423 27.9277 8.94238C28.4336 9.62598 28.6934 10.6833 28.707 12.1143V13.7549ZM27.4424 12.0254C27.4424 10.9544 27.292 10.1751 26.9912 9.6875C26.6904 9.19531 26.2142 8.94922 25.5625 8.94922C24.9154 8.94922 24.4437 9.19303 24.1475 9.68066C23.8512 10.1683 23.6986 10.918 23.6895 11.9297V13.9531C23.6895 15.0286 23.8444 15.8239 24.1543 16.3389C24.4688 16.8493 24.9427 17.1045 25.5762 17.1045C26.2005 17.1045 26.6631 16.863 26.9639 16.3799C27.2692 15.8968 27.4287 15.1357 27.4424 14.0967V12.0254ZM36.8486 18H30.3271V17.0908L33.7725 13.2627C34.2829 12.6839 34.6338 12.2145 34.8252 11.8545C35.0212 11.4899 35.1191 11.1139 35.1191 10.7266C35.1191 10.207 34.9619 9.78092 34.6475 9.44824C34.333 9.11556 33.9137 8.94922 33.3896 8.94922C32.7607 8.94922 32.2708 9.12923 31.9199 9.48926C31.5736 9.84473 31.4004 10.3415 31.4004 10.9795H30.1357C30.1357 10.0635 30.4297 9.32292 31.0176 8.75781C31.61 8.19271 32.4007 7.91016 33.3896 7.91016C34.3148 7.91016 35.0462 8.15397 35.584 8.6416C36.1217 9.12467 36.3906 9.76953 36.3906 10.5762C36.3906 11.556 35.7663 12.7227 34.5176 14.0762L31.8516 16.9678H36.8486V18ZM43.0352 13.625C42.7708 13.9395 42.4541 14.1924 42.085 14.3838C41.7204 14.5752 41.3193 14.6709 40.8818 14.6709C40.3076 14.6709 39.8063 14.5296 39.3779 14.2471C38.9541 13.9645 38.626 13.568 38.3936 13.0576C38.1611 12.5426 38.0449 11.9753 38.0449 11.3555C38.0449 10.6901 38.1702 10.0908 38.4209 9.55762C38.6761 9.02441 39.0361 8.61654 39.501 8.33398C39.9658 8.05143 40.5081 7.91016 41.1279 7.91016C42.1123 7.91016 42.887 8.2793 43.4521 9.01758C44.0218 9.7513 44.3066 10.7539 44.3066 12.0254V12.3945C44.3066 14.3314 43.9238 15.7464 43.1582 16.6396C42.3926 17.5283 41.2373 17.984 39.6924 18.0068H39.4463V16.9404H39.7129C40.7565 16.9222 41.5586 16.651 42.1191 16.127C42.6797 15.5983 42.985 14.7643 43.0352 13.625ZM41.0869 13.625C41.5107 13.625 41.9004 13.4951 42.2559 13.2354C42.6159 12.9756 42.8779 12.6543 43.042 12.2715V11.7656C43.042 10.9362 42.862 10.2617 42.502 9.74219C42.1419 9.22266 41.6862 8.96289 41.1348 8.96289C40.5788 8.96289 40.1322 9.17708 39.7949 9.60547C39.4577 10.0293 39.2891 10.5898 39.2891 11.2871C39.2891 11.9661 39.4508 12.5267 39.7744 12.9688C40.1025 13.4062 40.54 13.625 41.0869 13.625Z" fill="#594031"/>
</svg>

